<?xml version="1.0" standalone="no"?>
<!DOCTYPE svg PUBLIC "-//W3C//DTD SVG 20010904//EN"
 "http://www.w3.org/TR/2001/REC-SVG-20010904/DTD/svg10.dtd">
<svg version="1.0" xmlns="http://www.w3.org/2000/svg"
 width="1134.000000pt" height="1280.000000pt" viewBox="0 0 1134.000000 1280.000000"
 preserveAspectRatio="xMidYMid meet">
<metadata>
Created by potrace 1.15, written by Peter Selinger 2001-2017
</metadata>
<g transform="translate(0.000000,1280.000000) scale(0.100000,-0.100000)"
fill="#000000" stroke="none">
<path d="M4858 12002 c-421 -438 -1195 -1240 -1718 -1782 -523 -542 -959 -999
-967 -1016 -52 -105 95 -202 437 -289 298 -75 805 -131 970 -107 36 5 66 8 68
7 3 -3 -959 -1003 -1927 -2004 -300 -310 -554 -575 -563 -590 -19 -28 -23 -76
-9 -113 26 -69 167 -153 361 -217 320 -104 862 -194 1232 -203 l107 -3 -28
-30 c-64 -68 -1435 -1491 -2075 -2153 -379 -392 -700 -727 -713 -744 -105
-143 42 -292 409 -417 391 -133 1079 -250 1583 -268 304 -11 495 28 1067 216
371 122 526 164 696 186 202 27 351 14 509 -43 l78 -28 3 -65 c8 -150 -45
-464 -123 -734 -48 -163 -108 -339 -234 -678 -45 -120 -81 -232 -81 -248 0
-44 32 -99 87 -151 57 -53 91 -72 155 -88 60 -15 113 -5 348 72 157 52 196 61
260 61 118 1 166 -27 325 -192 271 -280 320 -327 368 -350 147 -71 240 -25
472 232 316 350 361 365 742 243 207 -66 290 -81 358 -66 133 30 275 152 275
236 0 18 -38 128 -86 246 -252 628 -349 991 -379 1413 l-7 90 79 22 c121 35
224 46 363 40 233 -11 408 -50 855 -189 692 -215 896 -249 1315 -218 745 54
1468 215 1723 384 144 95 182 202 108 302 -138 190 -1207 1326 -2404 2554
l-356 365 52 3 c103 5 375 33 507 52 555 82 946 216 1015 350 18 35 19 93 4
123 -50 94 -1013 1118 -2040 2167 l-416 425 166 1 c183 1 317 13 551 50 364
58 609 140 693 233 38 42 45 70 28 113 -10 25 -315 364 -611 678 -283 301
-676 705 -1510 1555 -421 429 -894 912 -1050 1073 -157 160 -289 292 -295 292
-5 -1 -355 -359 -777 -798z"/>
</g>
</svg>
